<svg xmlns="http://www.w3.org/2000/svg" width="320" height="320" viewBox="0 0 320 320">
  <style>
    .light-mode { display: block; }
    .dark-mode { display: none; }
    @media (prefers-color-scheme: dark) {
      .light-mode { display: none; }
      .dark-mode { display: block; }
    }
  </style>
  
  <g class="light-mode" transform="translate(0,320) scale(0.1,-0.1)" fill="#000000" stroke="none">
    <path d="M1006 2355 c-368 -135 -684 -255 -702 -267 -46 -32 -84 -104 -84 -162 0 -56 278 -832 317 -884 13 -18 43 -42 66 -54 63 -32 123 -27 255 21 169 61 152 36 152 216 0 85 -3 155 -7 155 -5 0 -70 -23 -146 -51 -133 -48 -140 -49 -164 -34 -18 12 -23 24 -21 43 4 33 27 45 203 110 l130 47 5 170 c5 161 6 173 33 227 31 63 86 116 156 150 45 23 54 23 454 26 224 2 407 4 407 6 0 23 -157 429 -175 452 -34 44 -100 74 -161 73 -38 0 -195 -53 -718 -244z m-206 -470 c21 -11 35 -32 54 -82 31 -80 32 -113 9 -142 -18 -21 -189 -91 -223 -91 -34 0 -67 39 -94 113 -41 111 -28 132 113 184 101 37 103 37 141 18z"/>
    <path d="M1313 1949 c-76 -7 -128 -40 -164 -102 l-24 -42 -3 -430 c-2 -294 1 -444 8 -475 15 -58 51 -105 103 -133 l42 -22 725 -3 c521 -2 737 0 766 9 55 15 112 63 135 113 17 38 19 75 19 477 0 300 -4 447 -11 470 -18 52 -56 97 -101 120 -41 21 -52 21 -737 23 -383 0 -724 -2 -758 -5z m1451 -161 c10 -14 16 -44 16 -80 l0 -58 -757 2 -758 3 0 63 c0 51 4 67 20 78 16 12 136 14 741 14 l723 0 15 -22z m16 -623 l0 -236 -25 -24 -24 -25 -711 0 -711 0 -24 25 -25 24 0 236 0 235 760 0 760 0 0 -235z"/>
    <path d="M1418 1259 c-21 -12 -24 -59 -6 -77 9 -9 110 -12 393 -12 357 0 383 1 398 18 22 24 21 38 -3 62 -19 19 -33 20 -392 20 -235 0 -379 -4 -390 -11z"/>
  </g>
  
  <g class="dark-mode" transform="translate(0,320) scale(0.1,-0.1)" fill="#3dcf8e" stroke="none">
    <path d="M1006 2355 c-368 -135 -684 -255 -702 -267 -46 -32 -84 -104 -84 -162 0 -56 278 -832 317 -884 13 -18 43 -42 66 -54 63 -32 123 -27 255 21 169 61 152 36 152 216 0 85 -3 155 -7 155 -5 0 -70 -23 -146 -51 -133 -48 -140 -49 -164 -34 -18 12 -23 24 -21 43 4 33 27 45 203 110 l130 47 5 170 c5 161 6 173 33 227 31 63 86 116 156 150 45 23 54 23 454 26 224 2 407 4 407 6 0 23 -157 429 -175 452 -34 44 -100 74 -161 73 -38 0 -195 -53 -718 -244z m-206 -470 c21 -11 35 -32 54 -82 31 -80 32 -113 9 -142 -18 -21 -189 -91 -223 -91 -34 0 -67 39 -94 113 -41 111 -28 132 113 184 101 37 103 37 141 18z"/>
    <path d="M1313 1949 c-76 -7 -128 -40 -164 -102 l-24 -42 -3 -430 c-2 -294 1 -444 8 -475 15 -58 51 -105 103 -133 l42 -22 725 -3 c521 -2 737 0 766 9 55 15 112 63 135 113 17 38 19 75 19 477 0 300 -4 447 -11 470 -18 52 -56 97 -101 120 -41 21 -52 21 -737 23 -383 0 -724 -2 -758 -5z m1451 -161 c10 -14 16 -44 16 -80 l0 -58 -757 2 -758 3 0 63 c0 51 4 67 20 78 16 12 136 14 741 14 l723 0 15 -22z m16 -623 l0 -236 -25 -24 -24 -25 -711 0 -711 0 -24 25 -25 24 0 236 0 235 760 0 760 0 0 -235z"/>
    <path d="M1418 1259 c-21 -12 -24 -59 -6 -77 9 -9 110 -12 393 -12 357 0 383 1 398 18 22 24 21 38 -3 62 -19 19 -33 20 -392 20 -235 0 -379 -4 -390 -11z"/>
  </g>
</svg>